<?xml version="1.0" encoding="UTF-8"?>
<svg xmlns="http://www.w3.org/2000/svg" xmlns:xlink="http://www.w3.org/1999/xlink" width="72pt" height="72pt" viewBox="0 0 72 72" version="1.1">
<g id="surface21573">
<path style=" stroke:none;fill-rule:nonzero;fill:rgb(100%,100%,100%);fill-opacity:1;" d="M 14.8125 20.273438 C 11.753906 20.273438 8.648438 21.464844 8.128906 22.117188 C 7.996094 22.386719 7.683594 24.570312 8.425781 24.570312 C 8.671875 24.570312 8.785156 24.613281 9.503906 24.273438 C 12.207031 23.21875 13.917969 23.242188 14.164062 23.242188 C 17.199219 22.949219 18.957031 25.019531 18.6875 27.699219 L 18.6875 29.273438 C 16.121094 28.664062 14.65625 28.644531 13.933594 28.644531 C 10.199219 28.417969 6.75 30.386719 6.75 34.71875 C 6.75 39.464844 10.988281 40.480469 12.628906 40.414062 C 15.082031 40.433594 17.421875 39.332031 18.976562 37.417969 C 20.214844 40.1875 21 40.003906 21.023438 40.003906 C 21.25 40.003906 21.429688 39.914062 21.609375 39.800781 L 22.890625 38.898438 C 23.117188 38.765625 23.292969 38.542969 23.316406 38.273438 C 23.292969 37.621094 22.125 36.605469 22.214844 34.335938 L 22.214844 27.316406 C 22.347656 25.382812 21.722656 23.488281 20.417969 22.023438 C 18.863281 20.71875 16.816406 20.09375 14.8125 20.273438 Z M 58.402344 20.273438 C 53.902344 20.273438 51.316406 23.082031 51.386719 25.941406 C 51.386719 29.855469 55.34375 31.097656 55.792969 31.230469 C 59.59375 32.425781 60.113281 32.46875 61.171875 33.367188 C 62.070312 34.289062 61.957031 36.089844 60.632812 36.878906 C 60.25 37.105469 58.605469 38.09375 54.890625 37.328125 C 53.65625 37.078125 53.003906 36.789062 51.992188 36.359375 C 51.722656 36.269531 51.089844 36.113281 51.089844 36.945312 L 51.089844 38.046875 C 51.089844 38.566406 51.40625 39.035156 51.878906 39.261719 C 54.238281 40.453125 57.074219 40.5 57.683594 40.5 C 57.773438 40.5 62.945312 40.503906 64.679688 37.011719 C 65.035156 36.289062 65.964844 33.660156 64.230469 31.414062 C 62.789062 29.726562 61.554688 29.542969 57.863281 28.417969 C 57.546875 28.328125 54.824219 27.628906 54.847656 25.71875 C 54.714844 23.265625 58.042969 23.132812 58.742188 23.175781 C 61.554688 23.132812 62.945312 24.1875 63.710938 24.253906 C 64.050781 24.253906 64.207031 24.054688 64.207031 23.601562 L 64.207031 22.566406 C 64.230469 22.320312 64.140625 22.074219 64.007812 21.871094 C 63.105469 20.703125 59.664062 20.273438 58.402344 20.273438 Z M 24.25 20.835938 C 24 20.878906 23.820312 21.128906 23.867188 21.375 C 23.910156 21.667969 23.957031 21.960938 24.070312 22.253906 L 29.109375 38.878906 C 29.222656 39.417969 29.578125 40.003906 30.367188 39.914062 L 32.210938 39.914062 C 33.335938 40.027344 33.496094 38.945312 33.515625 38.835938 L 36.828125 24.972656 L 40.179688 38.855469 C 40.203125 38.96875 40.359375 40.050781 41.460938 39.9375 L 43.328125 39.9375 C 44.140625 40.027344 44.523438 39.441406 44.636719 38.898438 C 50.304688 20.652344 49.921875 21.894531 49.964844 21.714844 C 50.054688 20.769531 49.515625 20.832031 49.425781 20.855469 L 47.421875 20.855469 C 46.410156 20.742188 46.210938 21.667969 46.164062 21.894531 L 42.429688 36.316406 L 39.054688 21.894531 C 38.898438 20.792969 37.996094 20.832031 37.769531 20.855469 L 36.039062 20.855469 C 35.050781 20.765625 34.800781 21.554688 34.734375 21.894531 L 31.382812 36.113281 L 27.78125 21.894531 C 27.691406 21.445312 27.398438 20.746094 26.519531 20.835938 Z M 14.679688 31.253906 C 16.296875 31.277344 17.695312 31.519531 18.664062 31.746094 C 18.664062 32.871094 18.703125 33.503906 18.457031 34.515625 C 18.140625 35.59375 16.75 37.554688 13.464844 37.601562 C 11.574219 37.691406 10.335938 36.203125 10.449219 34.515625 C 10.335938 31.816406 13.125 31.140625 14.679688 31.253906 Z M 65.34375 45.003906 C 63.242188 45.035156 60.761719 45.503906 58.882812 46.824219 C 58.300781 47.226562 58.402344 47.785156 59.050781 47.710938 C 61.164062 47.457031 65.871094 46.886719 66.714844 47.960938 C 67.558594 49.039062 65.78125 53.472656 64.996094 55.460938 C 64.753906 56.050781 65.265625 56.296875 65.808594 55.84375 C 69.328125 52.898438 70.242188 46.71875 69.523438 45.832031 C 69.160156 45.386719 67.441406 44.976562 65.34375 45.003906 Z M 2.738281 47.253906 C 2.246094 47.320312 2.035156 47.945312 2.546875 48.4375 C 11.363281 56.703125 23.007812 60.75 35.9375 60.75 C 45.160156 60.75 55.867188 57.742188 63.257812 52.070312 C 64.480469 51.128906 63.441406 49.714844 62.1875 50.273438 C 53.898438 53.929688 44.898438 55.691406 36.707031 55.691406 C 24.566406 55.691406 12.8125 53.15625 3.304688 47.398438 C 3.097656 47.273438 2.902344 47.230469 2.738281 47.253906 Z M 2.738281 47.253906 "/>
</g>
</svg>
