<?xml version="1.0" encoding="UTF-8"?>
<svg xmlns="http://www.w3.org/2000/svg" xmlns:xlink="http://www.w3.org/1999/xlink" width="72pt" height="72pt" viewBox="0 0 72 72" version="1.1">
<g id="surface17995">
<path style=" stroke:none;fill-rule:nonzero;fill:rgb(48.627451%,30.19608%,100%);fill-opacity:1;" d="M 11.058594 17.164062 C 10.941406 13.699219 13.640625 10.5 17.292969 10.5 L 54.710938 10.5 C 58.363281 10.5 61.066406 13.699219 60.945312 17.164062 C 60.828125 20.496094 60.980469 24.808594 62.066406 28.328125 C 63.15625 31.859375 64.992188 34.089844 68 34.375 L 68 37.625 C 64.992188 37.914062 63.15625 40.144531 62.066406 43.671875 C 60.980469 47.191406 60.828125 51.503906 60.945312 54.835938 C 61.066406 58.300781 58.363281 61.5 54.710938 61.5 L 17.292969 61.5 C 13.640625 61.5 10.941406 58.300781 11.0625 54.835938 C 11.175781 51.503906 11.027344 47.191406 9.941406 43.671875 C 8.851562 40.140625 7.007812 37.910156 4 37.625 L 4 34.375 C 7.007812 34.085938 8.851562 31.855469 9.941406 28.328125 C 11.023438 24.808594 11.175781 20.496094 11.058594 17.164062 Z M 11.058594 17.164062 "/>
<path style=" stroke:none;fill-rule:nonzero;fill:rgb(100%,100%,100%);fill-opacity:1;" d="M 40.609375 35.195312 L 40.609375 35.152344 C 43.390625 34.675781 45.558594 32.070312 45.558594 29.199219 C 45.558594 27.171875 44.777344 25.453125 43.300781 24.230469 C 41.832031 23.011719 39.765625 22.371094 37.332031 22.371094 L 26.175781 22.371094 L 26.175781 49.621094 L 37.386719 49.621094 C 40.300781 49.621094 42.71875 48.910156 44.382812 47.5625 C 46.046875 46.214844 46.925781 44.25 46.925781 41.886719 C 46.925781 38.316406 44.390625 35.632812 40.609375 35.195312 Z M 35.386719 33.910156 L 30.613281 33.910156 L 30.613281 25.933594 L 36.289062 25.933594 C 39.402344 25.933594 41.117188 27.300781 41.117188 29.78125 C 41.121094 32.445312 39.082031 33.910156 35.386719 33.910156 Z M 30.613281 37.25 L 36.253906 37.25 C 40.324219 37.25 42.390625 38.722656 42.390625 41.625 C 42.390625 44.523438 40.355469 46.054688 36.503906 46.054688 L 30.613281 46.054688 Z M 30.613281 37.25 "/>
</g>
</svg>
