<?xml version="1.0" encoding="UTF-8"?>
<svg xmlns="http://www.w3.org/2000/svg" xmlns:xlink="http://www.w3.org/1999/xlink" width="72pt" height="72pt" viewBox="0 0 72 72" version="1.1">
<g id="surface20947">
<path style=" stroke:none;fill-rule:nonzero;fill:rgb(100%,56.078434%,0%);fill-opacity:1;" d="M 12 55.5 L 34.851562 12.652344 C 35.332031 11.75 36.632812 11.765625 37.09375 12.683594 L 45 28.5 Z M 12 55.5 "/>
<path style=" stroke:none;fill-rule:nonzero;fill:rgb(100%,62.7451%,0%);fill-opacity:1;" d="M 12 55.488281 L 20.320312 4.191406 C 20.535156 2.847656 22.339844 2.554688 22.96875 3.761719 L 39 34.488281 Z M 12 55.488281 "/>
<path style=" stroke:none;fill-rule:nonzero;fill:rgb(100%,43.529412%,0%);fill-opacity:1;" d="M 12.011719 55.480469 L 12.3125 55.242188 L 38.605469 33.730469 L 31.191406 19.519531 Z M 12.011719 55.480469 "/>
<path style=" stroke:none;fill-rule:nonzero;fill:rgb(100%,76.862746%,0%);fill-opacity:1;" d="M 12 55.5 L 52 16.929688 C 52.835938 16.121094 54.238281 16.597656 54.40625 17.75 L 60 55.5 L 37.5 68.613281 C 36.585938 69.128906 35.472656 69.128906 34.558594 68.613281 Z M 12 55.5 "/>
</g>
</svg>
