<?xml version="1.0" encoding="UTF-8"?>
<svg xmlns="http://www.w3.org/2000/svg" xmlns:xlink="http://www.w3.org/1999/xlink" width="72pt" height="72pt" viewBox="0 0 72 72" version="1.1">
<g id="surface2955">
<path style=" stroke:none;fill-rule:nonzero;fill:rgb(36.470589%,25.098041%,21.568628%);fill-opacity:1;" d="M 63 25.949219 C 63 56.699219 36 66 36 66 C 36 66 9 56.699219 9 25.949219 C 9 22.199219 9.300781 19.050781 9.601562 16.5 C 10.050781 12.75 12.601562 9.75 16.199219 8.851562 C 20.851562 7.5 28.199219 6 36 6 C 43.800781 6 51.148438 7.5 55.949219 8.851562 C 59.550781 9.75 62.101562 12.898438 62.550781 16.5 C 62.699219 19.050781 63 22.351562 63 25.949219 Z M 63 25.949219 "/>
<path style=" stroke:none;fill-rule:nonzero;fill:rgb(29.803923%,68.627453%,31.37255%);fill-opacity:1;" d="M 36 10.5 C 43.351562 10.5 50.25 12 54.75 13.199219 C 56.550781 13.648438 57.75 15.148438 58.050781 17.101562 C 58.351562 19.949219 58.5 22.949219 58.5 25.949219 C 58.5 49.351562 41.25 58.800781 36 61.050781 C 30.75 58.648438 13.5 49.199219 13.5 25.949219 C 13.5 22.949219 13.648438 19.949219 13.949219 17.101562 C 14.101562 15.148438 15.449219 13.648438 17.25 13.199219 C 21.75 12 28.648438 10.5 36 10.5 M 36 6 C 28.199219 6 20.851562 7.5 16.050781 8.851562 C 12.601562 9.75 9.898438 12.898438 9.601562 16.5 C 9.300781 19.050781 9 22.351562 9 25.949219 C 9 56.699219 36 66 36 66 C 36 66 63 56.699219 63 25.949219 C 63 22.199219 62.699219 19.050781 62.398438 16.5 C 61.949219 12.75 59.398438 9.75 55.800781 8.851562 C 51.148438 7.5 43.800781 6 36 6 Z M 36 6 "/>
<path style=" stroke:none;fill-rule:nonzero;fill:rgb(86.274511%,92.941177%,78.431374%);fill-opacity:1;" d="M 34.5 42 L 37.5 42 L 37.5 54 L 34.5 54 Z M 34.5 42 "/>
<path style=" stroke:none;fill-rule:nonzero;fill:rgb(29.803923%,68.627453%,31.37255%);fill-opacity:1;" d="M 36 15 C 36 15 27 22.5 27 34.5 C 27 42.300781 31.949219 47.25 34.5 49.5 L 36 45 L 37.5 49.5 C 40.050781 47.25 45 42.300781 45 34.5 C 45 22.5 36 15 36 15 Z M 36 15 "/>
<path style=" stroke:none;fill-rule:nonzero;fill:rgb(50.588238%,78.039217%,51.764709%);fill-opacity:1;" d="M 36 15 C 36 15 27 22.5 27 34.5 C 27 42.300781 31.949219 47.25 34.5 49.5 L 36 45 Z M 36 15 "/>
</g>
</svg>
