<?xml version="1.0" encoding="UTF-8"?>
<svg xmlns="http://www.w3.org/2000/svg" xmlns:xlink="http://www.w3.org/1999/xlink" width="72pt" height="72pt" viewBox="0 0 72 72" version="1.1">
<defs>
<linearGradient id="linear0" gradientUnits="userSpaceOnUse" x1="24" y1="43.734001" x2="24" y2="4.266" gradientTransform="matrix(1.5,0,0,1.5,0,0)">
<stop offset="0" style="stop-color:rgb(3.921569%,2.745098%,3.921569%);stop-opacity:1;"/>
<stop offset="0.465" style="stop-color:rgb(16.862746%,16.862746%,16.862746%);stop-opacity:1;"/>
<stop offset="1" style="stop-color:rgb(29.411766%,29.411766%,29.411766%);stop-opacity:1;"/>
</linearGradient>
<linearGradient id="linear1" gradientUnits="userSpaceOnUse" x1="30.511999" y1="33.021" x2="30.511999" y2="18.431" gradientTransform="matrix(1.5,0,0,1.5,0,0)">
<stop offset="0.377" style="stop-color:rgb(100%,100%,100%);stop-opacity:0;"/>
<stop offset="0.666" style="stop-color:rgb(100%,100%,100%);stop-opacity:0.301961;"/>
<stop offset="0.988" style="stop-color:rgb(100%,100%,100%);stop-opacity:1;"/>
</linearGradient>
<linearGradient id="linear2" gradientUnits="userSpaceOnUse" x1="22.101999" y1="21.443001" x2="36.660999" y2="40.528999" gradientTransform="matrix(1.5,0,0,1.5,0,0)">
<stop offset="0.296" style="stop-color:rgb(100%,100%,100%);stop-opacity:1;"/>
<stop offset="0.521" style="stop-color:rgb(100%,100%,100%);stop-opacity:0.501961;"/>
<stop offset="0.838" style="stop-color:rgb(100%,100%,100%);stop-opacity:0;"/>
</linearGradient>
</defs>
<g id="surface21446">
<path style=" stroke:none;fill-rule:nonzero;fill:url(#linear0);" d="M 65.601562 36 C 65.601562 52.347656 52.347656 65.601562 36 65.601562 C 19.652344 65.601562 6.398438 52.347656 6.398438 36 C 6.398438 19.652344 19.652344 6.398438 36 6.398438 C 52.347656 6.398438 65.601562 19.652344 65.601562 36 Z M 65.601562 36 "/>
<path style=" stroke:none;fill-rule:nonzero;fill:rgb(100%,100%,100%);fill-opacity:1;" d="M 23.988281 24.039062 L 28.523438 24.039062 L 28.523438 48.035156 L 23.988281 48.035156 Z M 23.988281 24.039062 "/>
<path style=" stroke:none;fill-rule:nonzero;fill:url(#linear1);" d="M 43.550781 23.933594 L 47.980469 23.933594 L 47.980469 45.820312 L 43.550781 45.820312 Z M 43.550781 23.933594 "/>
<path style=" stroke:none;fill-rule:nonzero;fill:url(#linear2);" d="M 55.171875 57.140625 L 51.253906 58.636719 L 23.988281 24.039062 L 29.261719 24.039062 Z M 55.171875 57.140625 "/>
</g>
</svg>
