<?xml version="1.0" encoding="UTF-8"?>
<svg xmlns="http://www.w3.org/2000/svg" xmlns:xlink="http://www.w3.org/1999/xlink" width="72pt" height="72pt" viewBox="0 0 72 72" version="1.1">
<g id="surface2056">
<path style=" stroke:none;fill-rule:nonzero;fill:rgb(12.941177%,63.921571%,40.000001%);fill-opacity:1;" d="M 36.011719 68.128906 C 35.148438 68.128906 34.296875 67.902344 33.542969 67.46875 L 25.679688 62.8125 C 24.507812 62.15625 25.078125 61.925781 25.46875 61.789062 C 27.03125 61.242188 27.347656 61.117188 29.019531 60.167969 C 29.195312 60.070312 29.425781 60.105469 29.605469 60.210938 L 35.644531 63.796875 C 35.863281 63.914062 36.171875 63.914062 36.375 63.796875 L 59.917969 50.203125 C 60.136719 50.078125 60.277344 49.828125 60.277344 49.566406 L 60.277344 22.398438 C 60.277344 22.125 60.136719 21.886719 59.914062 21.75 L 36.378906 8.167969 C 36.160156 8.039062 35.871094 8.039062 35.65625 8.167969 L 12.121094 21.75 C 11.894531 21.878906 11.75 22.132812 11.75 22.390625 L 11.75 49.5625 C 11.75 49.820312 11.890625 50.070312 12.117188 50.191406 L 18.5625 53.914062 C 22.066406 55.667969 24.203125 53.605469 24.203125 51.53125 L 24.203125 24.714844 C 24.203125 24.332031 24.503906 24.035156 24.886719 24.035156 L 27.871094 24.035156 C 28.242188 24.035156 28.546875 24.328125 28.546875 24.714844 L 28.546875 51.542969 C 28.546875 56.210938 26.003906 58.894531 21.574219 58.894531 C 20.214844 58.894531 19.140625 58.894531 16.148438 57.421875 L 9.96875 53.859375 C 8.445312 52.976562 7.5 51.324219 7.5 49.5625 L 7.5 22.390625 C 7.5 20.625 8.445312 18.972656 9.96875 18.101562 L 33.539062 4.503906 C 35.03125 3.660156 37.011719 3.660156 38.492188 4.503906 L 62.03125 18.105469 C 63.550781 18.984375 64.5 20.628906 64.5 22.398438 L 64.5 49.570312 C 64.5 51.332031 63.550781 52.976562 62.03125 53.859375 L 38.488281 67.457031 C 37.734375 67.894531 36.878906 68.117188 36.007812 68.117188 "/>
<path style=" stroke:none;fill-rule:nonzero;fill:rgb(12.941177%,63.921571%,40.000001%);fill-opacity:1;" d="M 43.285156 49.40625 C 32.980469 49.40625 30.820312 44.675781 30.820312 40.710938 C 30.820312 40.332031 31.125 40.03125 31.503906 40.03125 L 34.546875 40.03125 C 34.882812 40.03125 35.164062 40.277344 35.21875 40.609375 C 35.675781 43.707031 37.046875 45.269531 43.273438 45.269531 C 48.238281 45.269531 50.347656 44.148438 50.347656 41.515625 C 50.347656 40.003906 49.746094 38.878906 42.039062 38.121094 C 35.589844 37.488281 31.605469 36.066406 31.605469 30.910156 C 31.605469 26.160156 35.613281 23.328125 42.324219 23.328125 C 49.863281 23.328125 53.601562 25.945312 54.070312 31.570312 C 54.089844 31.765625 54.019531 31.953125 53.890625 32.09375 C 53.761719 32.230469 53.578125 32.3125 53.386719 32.3125 L 50.328125 32.3125 C 50.011719 32.3125 49.734375 32.089844 49.667969 31.78125 C 48.933594 28.519531 47.152344 27.476562 42.3125 27.476562 C 36.898438 27.476562 36.265625 29.363281 36.265625 30.777344 C 36.265625 32.492188 37.007812 32.992188 44.316406 33.960938 C 51.554688 34.921875 54.992188 36.277344 54.992188 41.363281 C 54.992188 46.492188 50.710938 49.433594 43.25 49.433594 "/>
</g>
</svg>
