<?xml version="1.0" encoding="UTF-8"?>
<svg xmlns="http://www.w3.org/2000/svg" xmlns:xlink="http://www.w3.org/1999/xlink" width="72pt" height="72pt" viewBox="0 0 72 72" version="1.1">
<g id="surface16507">
<path style=" stroke:none;fill-rule:nonzero;fill:rgb(0%,67.450982%,75.686276%);fill-opacity:1;" d="M 36 14.40625 C 26.398438 14.40625 20.398438 19.203125 18 28.800781 C 21.601562 24.003906 25.800781 22.203125 30.601562 23.402344 C 33.339844 24.085938 35.296875 26.074219 37.464844 28.273438 C 40.992188 31.855469 45.078125 36 54 36 C 63.601562 36 69.601562 31.203125 72 21.601562 C 68.398438 26.402344 64.199219 28.203125 59.398438 27.003906 C 56.664062 26.320312 54.703125 24.332031 52.539062 22.132812 C 49.007812 18.550781 44.921875 14.40625 36 14.40625 Z M 18 36 C 8.398438 36 2.398438 40.796875 0 50.398438 C 3.601562 45.597656 7.800781 43.796875 12.601562 45 C 15.335938 45.683594 17.296875 47.671875 19.460938 49.867188 C 22.992188 53.449219 27.078125 57.59375 36 57.59375 C 45.601562 57.59375 51.601562 52.796875 54 43.199219 C 50.398438 47.996094 46.199219 49.796875 41.398438 48.597656 C 38.660156 47.914062 36.703125 45.925781 34.535156 43.726562 C 31.007812 40.144531 26.921875 36 18 36 Z M 18 36 "/>
</g>
</svg>
